# xmcd
#
# Track frame offsets:
#	150
#	57562
#	103760
#	142064
#	172648
#	190388
#	224627
#
# Disc length: 3237 seconds
#
# Revision: 1
# Processed by: cddbd v1.5.1PL2 Copyright (c) Steve Scherf et al.
# Submitted via: EasyCDDAExtractor 9.0.0.1
#
DISCID=6c0ca307
DTITLE=Whitesnake - Empire Theatre Liverpool 04-11-79 Disc 2
DYEAR=1979
DGENRE=Hard Rock
TTITLE0=Mistreated
TTITLE1=Jon Lord Keyboard Solo
TTITLE2=Belgian Tom's Hat Trick
TTITLE3=Love Hunter
TTITLE4=Lie Down
TTITLE5=Take Me With You
TTITLE6=Medicine Man
EXTD=
EXTT0=
EXTT1=
EXTT2=
EXTT3=
EXTT4=
EXTT5=
EXTT6=
PLAYORDER=
